<svg width="80" height="107" viewBox="0 0 80 107" fill="none" xmlns="http://www.w3.org/2000/svg">
<g clip-path="url(#clip0_120_92)">
<path d="M54.1353 52.7955L55.9761 37.2085C59.4323 33.8895 61.3859 29.0159 61.3859 23.9323C61.3483 14.2272 54.3231 6.37073 45.6825 6.32872H45.1565C43.0527 2.58953 39.3711 0.320801 35.3889 0.320801C31.4443 0.320801 27.7626 2.58953 25.6213 6.32872H25.0577C16.3796 6.37073 9.35437 14.2272 9.35437 23.9323C9.35437 29.0159 11.3455 33.8475 14.7641 37.2085L17.3563 59.3916L54.1353 52.7955ZM54.0601 84.0534C55.6004 102.161 36.9292 113.421 24.2688 102.161C19.9109 98.2539 18.5209 94.1786 17.3563 88.4648L24.4566 87.1624C25.2456 90.7756 25.9594 93.3384 28.8521 95.8592C36.4408 102.539 47.636 95.8592 46.8847 85.0197L46.7344 83.1291L53.8347 81.8267L54.0601 84.0534Z" fill="#FFC629"/>
<path d="M53.985 84.0954C55.5253 102.203 36.8541 113.463 24.1937 102.203C19.8358 98.2959 18.4082 94.2206 17.2812 88.5068L24.3815 87.2044C25.1704 90.8175 25.8842 93.3803 28.777 95.9011C36.3657 102.581 47.5609 95.9011 46.8095 85.0617L46.6593 83.1711L53.7596 81.8687L53.985 84.0954Z" fill="#FFC629"/>
<path d="M79.7941 66.9541C79.1555 69.3909 78.4417 71.8277 77.6527 74.1804C76.939 76.4071 76.1125 78.5918 75.2108 80.7345C74.9479 81.4067 74.6098 82.0789 74.2716 82.7091C73.9711 83.2133 73.633 83.6334 73.2197 84.0115C72.8441 84.3476 72.3932 84.5997 71.9424 84.7678C71.4165 84.9358 70.853 85.0198 70.2894 85.0198C69.8011 85.0198 69.3127 84.9778 68.8243 84.8518H68.7867V81.6588C69.2375 81.7848 69.6884 81.8688 70.1392 81.8688C70.6651 81.9109 71.1535 81.7008 71.5292 81.3227C71.9049 80.9025 72.1678 80.3564 72.3557 79.8102C70.5149 75.6929 68.9746 71.4075 67.8475 66.9961H71.4165C71.5668 67.6683 71.7546 68.3826 71.9424 69.1388C72.1303 69.895 72.3557 70.6933 72.5811 71.4915C72.8065 72.2898 73.0319 73.046 73.2949 73.8023C73.5203 74.5585 73.7457 75.2307 73.9711 75.8189C74.4219 74.3905 74.8352 72.962 75.2108 71.4915C75.4362 70.6933 75.6241 69.9371 75.8119 69.1388C75.9998 68.3826 76.1876 67.6683 76.3379 66.9961C76.3003 66.9541 79.7941 66.9541 79.7941 66.9541Z" fill="white"/>
<path d="M64.9548 101.153V82.2468L68.3359 81.6166V87.8345C68.6365 87.7505 68.8995 87.6665 69.2 87.5825C69.5381 87.4984 69.8762 87.4564 70.2143 87.4564C71.0408 87.4144 71.8673 87.5825 72.6187 87.9186C73.2198 88.1706 73.7457 88.6328 74.159 89.179C74.5722 89.7672 74.8352 90.3974 74.9854 91.1116C75.1357 91.9098 75.2484 92.7501 75.2109 93.5904V101.153H71.8298V94.0525C71.8298 92.8341 71.6795 91.9518 71.3789 91.4477C71.0784 90.9435 70.5524 90.6915 69.8386 90.6915C69.5381 90.6915 69.2751 90.7335 68.9746 90.7755C68.7116 90.8175 68.4862 90.9015 68.2608 90.9855V101.153H64.9548ZM54.3607 94.4727C54.3607 93.5484 54.511 92.6241 54.8115 91.7418C55.3375 90.0613 56.5021 88.6748 57.9672 88.0026C58.7937 87.6245 59.6578 87.4144 60.5594 87.4564C61.1605 87.4564 61.724 87.4984 62.3251 87.6665C62.851 87.7925 63.377 87.9606 63.8654 88.2127L63.1516 91.2376C62.8135 91.1116 62.4754 90.9855 62.0997 90.9015C61.6864 90.7755 61.2732 90.7335 60.8224 90.7335C59.9583 90.6494 59.1318 91.0696 58.6059 91.7838C58.0799 92.5821 57.8169 93.5484 57.8545 94.5147C57.7794 95.523 58.0423 96.4893 58.5307 97.3296C58.9815 98.0018 59.808 98.2959 60.9351 98.2959C61.3859 98.2959 61.7991 98.2538 62.2499 98.1698C62.7008 98.0858 63.114 97.9598 63.5272 97.7497L64.0156 100.859C63.5272 101.069 63.0389 101.237 62.5505 101.363C61.9118 101.489 61.2356 101.573 60.597 101.573C59.6202 101.615 58.681 101.405 57.7794 101.027C57.028 100.691 56.3894 100.186 55.8258 99.5563C55.2999 98.9261 54.9242 98.1698 54.6988 97.3296C54.4734 96.4053 54.3231 95.481 54.3607 94.5567M6.53681 94.0525C6.53681 92.8341 6.38654 91.9518 6.08599 91.4477C5.78545 90.9015 5.22194 90.6074 4.65842 90.6915C4.43301 90.6915 4.2076 90.6915 3.98219 90.7335C3.75678 90.7755 3.53138 90.7755 3.30597 90.8175V101.153H-0.0751343V88.2547C0.676223 88.0446 1.39001 87.8766 2.14137 87.7505C2.55461 87.6665 3.00543 87.6245 3.45624 87.5825C3.90706 87.5405 4.35787 87.4984 4.80869 87.4984C5.52248 87.4564 6.27383 87.5825 6.95005 87.8766C7.43843 88.0866 7.88925 88.3807 8.26492 88.7588C8.79087 88.3387 9.3544 88.0446 9.91792 87.8345C10.4814 87.6245 11.0825 87.4984 11.6836 87.4984C12.4725 87.4564 13.299 87.6245 14.0128 87.9606C14.5763 88.2127 15.1023 88.6748 15.478 89.221C15.8536 89.8092 16.1166 90.4394 16.2293 91.1536C16.3796 91.9939 16.4547 92.7921 16.4172 93.6324V101.195H12.9985V94.0945C12.9985 92.8761 12.8482 91.9939 12.5477 91.4897C12.2471 90.9435 11.6836 90.6494 11.1201 90.7335C10.8571 90.7335 10.5941 90.8175 10.3687 90.9015C10.0682 90.9855 9.80521 91.1116 9.54224 91.2796C9.65494 91.6998 9.73007 92.0779 9.76764 92.498C9.80521 92.9182 9.80521 93.3803 9.80521 93.8845V101.195H6.4241L6.53681 94.0525ZM66.8708 70.315C66.5327 70.2309 66.157 70.1469 65.8189 70.0629C65.1427 69.8948 64.4289 69.8948 63.7527 69.9789C63.5272 70.0209 63.3018 70.0629 63.0764 70.1049V80.3141H59.6953V67.6681C60.4091 67.4161 61.1229 67.164 61.8367 66.9959C62.7383 66.7859 63.6775 66.6598 64.5791 66.6598C64.767 66.6598 64.9924 66.6598 65.2554 66.7018C65.7813 66.7438 66.3073 66.8279 66.7957 66.9539C67.0211 66.9959 67.2465 67.0799 67.4719 67.164C67.4343 67.164 66.8708 70.315 66.8708 70.315ZM40.4982 80.3141C39.6341 78.3815 38.8452 76.4069 38.1314 74.3483C37.2673 71.9115 36.516 69.4327 35.8773 66.9119H39.4838C39.6341 67.5841 39.8219 68.2983 40.0098 69.0546C40.423 70.6091 40.8363 72.1636 41.3246 73.676C41.5501 74.4323 41.7755 75.1045 41.9633 75.6927C42.1511 75.0625 42.3765 74.3903 42.602 73.676C42.8274 72.9198 43.0528 72.1636 43.2782 71.3653C43.5036 70.5671 43.729 69.8108 43.9168 69.0126C44.1047 68.2563 44.2925 67.5421 44.4428 66.8699H47.9366C47.2604 69.3907 46.509 71.8695 45.6825 74.3062C44.9687 76.3229 44.1798 78.2975 43.3157 80.2721L40.4982 80.3141ZM35.3514 63.0887C35.3889 63.7189 35.1635 64.3071 34.7503 64.7272C33.9238 65.5255 32.7216 65.5255 31.8951 64.7272C31.1062 63.8029 31.1062 62.3744 31.8951 61.4502C32.7216 60.6519 33.9238 60.6519 34.7503 61.4502C35.1635 61.8703 35.3889 62.4585 35.3514 63.0887ZM35.0132 80.3141H31.6321V66.9539H35.0132V80.3141ZM29.7537 80.5662C28.9273 80.5662 28.1383 80.4402 27.3494 80.2301C26.8235 80.0621 26.2975 79.726 25.8843 79.3058C25.5086 78.8857 25.2832 78.4235 25.1705 77.8354C25.0202 77.2052 24.9826 76.575 24.9826 75.9027V61.1981L28.3637 60.6099V75.1885C28.3637 75.4826 28.4013 75.8187 28.4389 76.1128C28.4764 76.3649 28.5516 76.617 28.7018 76.785C28.8521 76.9951 29.04 77.1632 29.2654 77.2472C29.5659 77.3732 29.904 77.4572 30.2421 77.4993L29.7537 80.5662ZM47.5609 73.7181C47.5233 72.6677 47.7112 71.5754 48.0493 70.6091C48.3498 69.7688 48.7631 69.0126 49.3266 68.3824C49.8526 67.7942 50.4536 67.332 51.1674 67.0379C51.8436 66.7438 52.5574 66.5758 53.3088 66.5758C54.8115 66.4918 56.2766 67.122 57.3286 68.2983C58.3053 69.4747 58.7937 71.1552 58.7937 73.424C58.7937 73.634 58.7937 73.8861 58.7561 74.1382C58.7561 74.3903 58.7186 74.6423 58.7186 74.8524H51.0547C51.1299 75.6087 51.468 76.2809 52.0315 76.701C52.7077 77.2052 53.5342 77.4572 54.3607 77.3732C54.9618 77.3732 55.6004 77.2892 56.2015 77.1631C56.6899 77.0791 57.2159 76.9111 57.6667 76.659L58.1175 79.726C57.8921 79.852 57.6291 79.936 57.4037 80.0201C57.0656 80.1461 56.7275 80.2301 56.3894 80.2721C56.0137 80.3562 55.638 80.3982 55.1872 80.4822C54.7739 80.5242 54.3231 80.5662 53.9099 80.5662C52.9707 80.6082 51.9939 80.3982 51.0923 80.0201C50.3409 79.684 49.6647 79.1798 49.1012 78.5496C48.5752 77.9194 48.162 77.1631 47.9366 76.3649C47.6736 75.4826 47.5609 74.5583 47.5609 73.634V73.7181ZM55.4877 72.2476C55.4877 71.9115 55.4126 71.6174 55.3375 71.3233C55.1872 70.7351 54.8115 70.1889 54.2856 69.9369C53.985 69.7688 53.6469 69.6848 53.3088 69.7268C52.9707 69.7268 52.6326 69.8108 52.332 69.9369C52.0691 70.0629 51.8436 70.273 51.6558 70.525C51.468 70.7771 51.3177 71.0292 51.205 71.3653C51.0923 71.6594 51.0172 71.9955 50.9796 72.3316C50.9796 72.2476 55.4877 72.2476 55.4877 72.2476ZM12.5477 73.7181C12.5477 72.6677 12.6979 71.6174 13.036 70.6091C13.3366 69.7688 13.7498 69.0126 14.3134 68.3824C14.8393 67.7942 15.4404 67.332 16.1542 67.0379C16.8304 66.7438 17.5442 66.5758 18.2955 66.5758C19.7983 66.4918 21.2634 67.122 22.3153 68.2983C23.2921 69.4747 23.7805 71.1552 23.7805 73.424C23.7805 73.634 23.7805 73.8861 23.7429 74.1382C23.7429 74.3903 23.7053 74.6423 23.7053 74.8524H16.0415C16.1166 75.6087 16.4547 76.2809 17.0182 76.701C17.6945 77.2052 18.521 77.4152 19.3099 77.3732C19.911 77.3732 20.5496 77.2892 21.1507 77.1631C21.6391 77.0791 22.165 76.9111 22.6159 76.659L23.0667 79.726C22.8413 79.852 22.5783 79.936 22.3529 80.0201C22.0148 80.1461 21.6767 80.2301 21.3385 80.2721C20.9629 80.3562 20.5872 80.3982 20.1364 80.4822C19.7231 80.5242 19.2723 80.5662 18.8591 80.5662C17.9199 80.6082 16.9431 80.3982 16.0415 80.0201C15.2901 79.684 14.6139 79.1798 14.0504 78.5496C13.5244 77.9194 13.1112 77.1631 12.8858 76.3649C12.6228 75.4826 12.5101 74.5583 12.5101 73.634L12.5477 73.7181ZM20.4745 72.2476C20.4745 71.9115 20.3993 71.6174 20.3242 71.3233C20.2491 71.0292 20.0988 70.7351 19.9485 70.525C19.7607 70.315 19.5729 70.1049 19.3099 69.9789C19.0093 69.8108 18.6712 69.7268 18.3331 69.7688C17.995 69.7688 17.6569 69.8528 17.3563 69.9789C17.0934 70.1049 16.868 70.315 16.6801 70.5671C16.4923 70.8191 16.342 71.0712 16.2293 71.4073C16.1166 71.7014 16.079 72.0375 16.0039 72.3736L20.4745 72.2476ZM3.41867 73.508C3.3811 74.5163 3.60651 75.4826 4.13246 76.3229C4.62084 77.0371 5.40977 77.4572 6.23626 77.3732C6.72464 77.3732 7.21302 77.3312 7.70141 77.2472V70.357C7.43843 70.1889 7.17546 70.0629 6.87492 69.9789C6.53681 69.8948 6.19869 69.8108 5.86058 69.8108C4.24516 69.8528 3.41867 71.0712 3.41867 73.508ZM11.0825 79.894C10.7444 80.0201 10.4063 80.1041 10.0306 80.1881C9.20412 80.3982 8.34007 80.5242 7.47601 80.6082C7.06276 80.6503 6.61194 80.6503 6.19869 80.6923C5.29706 80.6923 4.39543 80.5242 3.56894 80.1881C2.81758 79.894 2.17894 79.4319 1.61542 78.8017C1.08947 78.1715 0.676218 77.4152 0.413243 76.617C0.1127 75.6927 -0.0375641 74.7264 -0.0375641 73.7181C-0.0375641 72.7097 0.0751395 71.7434 0.338114 70.7771C0.563522 69.9789 0.901628 69.2226 1.39001 68.5504C1.84082 67.9622 2.40434 67.4581 3.04299 67.164C3.75678 66.8279 4.54571 66.6598 5.29707 66.6598C5.71031 66.6598 6.16112 66.7018 6.57437 66.8279C6.95005 66.9539 7.32573 67.08 7.70141 67.248V61.1981L11.0825 60.5679V79.894Z" fill="white"/>
</g>
<defs>
<clipPath id="clip0_120_92">
<rect width="79.8317" height="106.378" fill="white" transform="translate(0 0.320801)"/>
</clipPath>
</defs>
</svg>
