<?xml version="1.0" standalone="no"?>
<!DOCTYPE svg PUBLIC "-//W3C//DTD SVG 20010904//EN"
 "http://www.w3.org/TR/2001/REC-SVG-20010904/DTD/svg10.dtd">
<svg version="1.0" xmlns="http://www.w3.org/2000/svg"
 width="300.000000pt" height="300.000000pt" viewBox="0 0 300.000000 300.000000"
 preserveAspectRatio="xMidYMid meet">

<g transform="translate(0.000000,300.000000) scale(0.100000,-0.100000)"
fill="#F0B212" stroke="none">
<path d="M1395 2764 c-97 -13 -177 -29 -231 -45 l-62 -19 8 -37 c23 -99 -45
-208 -146 -235 -44 -12 -44 -12 -44 -58 0 -90 -75 -195 -167 -236 -56 -25
-166 -23 -225 3 l-47 22 -26 -56 c-131 -288 -126 -649 15 -959 98 -217 302
-426 525 -537 311 -155 686 -155 995 1 335 168 549 440 626 797 23 109 23 341
0 450 -99 459 -437 795 -894 890 -74 15 -271 27 -327 19z m-82 -636 c30 -35
14 -88 -27 -88 -24 0 -36 17 -36 51 0 26 -25 24 -44 -3 -29 -41 -20 -66 53
-142 79 -81 95 -113 86 -173 -17 -113 -172 -204 -253 -147 -30 20 -30 76 0
106 20 20 22 20 35 3 7 -11 13 -26 13 -35 0 -9 9 -25 20 -35 20 -18 21 -18 48
8 21 22 27 37 27 71 0 40 -5 50 -56 103 -65 68 -89 109 -89 153 0 61 49 121
117 145 45 16 82 10 106 -17z m488 2 c35 -19 18 -80 -22 -80 -24 0 -33 18 -18
36 15 18 8 27 -15 18 -27 -10 -18 -35 34 -90 40 -42 50 -60 50 -87 0 -57 -63
-117 -124 -117 -33 0 -76 20 -76 35 0 20 11 24 30 12 14 -8 25 -8 44 1 35 16
33 46 -4 83 -72 73 -79 112 -26 165 36 36 86 45 127 24z m-181 -74 c-1 -69
-26 -188 -54 -250 -57 -127 -154 -220 -226 -214 -38 3 -51 27 -29 54 10 13 15
13 34 0 21 -14 26 -13 62 13 64 47 65 49 43 129 -32 115 -79 212 -103 212 -20
0 -20 0 -1 21 27 31 75 49 96 38 23 -12 51 -68 72 -143 25 -85 41 -61 43 66 1
83 4 104 18 114 28 21 45 6 45 -40z m-334 -541 c95 -28 162 -124 150 -214 -15
-107 -92 -162 -236 -169 -138 -7 -216 26 -257 108 -60 118 8 247 146 276 77
17 139 17 197 -1z m585 -12 c108 -48 151 -188 86 -284 -28 -41 -107 -85 -119
-67 -13 22 -9 59 11 87 29 41 35 75 17 108 -15 30 -55 63 -76 63 -6 0 -10 -50
-10 -140 l0 -140 -39 0 c-32 0 -40 4 -45 23 -12 46 -6 80 19 103 23 21 25 29
20 76 -8 66 -12 78 -25 78 -5 0 -10 -22 -10 -50 0 -38 -4 -50 -15 -50 -11 0
-15 13 -17 53 l-2 52 -3 -52 c-3 -38 -8 -53 -19 -53 -10 0 -14 13 -14 51 0 56
-20 65 -31 13 -14 -61 -10 -104 11 -121 15 -13 20 -30 20 -65 0 -51 -3 -54
-47 -37 -93 35 -141 166 -93 258 33 66 78 95 180 115 51 10 156 -1 201 -21z
m-956 -33 l0 -45 -97 -3 c-97 -3 -98 -3 -98 -27 0 -24 2 -25 70 -25 l70 0 0
-45 0 -45 -70 0 -69 0 -3 -67 -3 -68 -85 0 -85 0 -3 174 c-2 121 1 178 9 187
10 12 46 14 188 12 l176 -3 0 -45z m1463 29 c48 -24 89 -77 102 -134 18 -81
-33 -179 -110 -212 -30 -13 -176 -19 -332 -13 -10 0 -11 364 -1 373 3 4 72 7
152 7 127 0 150 -3 189 -21z"/>
<path d="M1125 1405 c-19 -18 -25 -35 -25 -65 0 -46 21 -94 45 -104 65 -25
121 18 119 92 -1 38 -6 50 -33 74 -39 34 -74 36 -106 3z"/>
<path d="M2204 1407 c-2 -7 -4 -49 -2 -93 l3 -79 31 -3 c19 -2 38 3 47 13 25
24 32 83 16 130 -13 36 -18 40 -52 43 -25 2 -39 -1 -43 -11z"/>
</g>
</svg>
