<svg width="112" height="68" viewBox="0 0 112 68" fill="none" xmlns="http://www.w3.org/2000/svg">
<g clip-path="url(#clip0_120_99)">
<path d="M0.0528564 38.9965H8.54317L13.2611 12.5883H4.7697L0.0528564 38.9965ZM5.23749 9.43857H13.7634L15.1645 1.53736H6.64199L5.23749 9.43857ZM11.8455 46.4276H20.3369L25.5249 17.8962H31.8929L32.8318 12.5883H26.5861L26.8227 11.3942C27.1761 9.14348 27.8839 6.61645 31.0673 6.61645C32.9563 6.61645 34.7241 6.74898 36.492 7.67802L37.4365 2.10504C35.4663 1.32276 33.3932 0.918678 31.304 0.909668C24.4638 0.909668 19.748 5.42232 17.978 12.5883H15.0301L14.0867 17.8962H17.0346L11.8455 46.4276Z" fill="#FFC629"/>
<path d="M38.7332 39.5281C48.7569 39.5281 55.7149 29.3087 55.7149 20.9486C55.7149 14.7117 50.6436 12.0571 45.6912 12.0571C34.7208 12.0571 28.7095 23.078 28.7095 30.6366C28.7095 36.8736 33.8985 39.5281 38.7332 39.5281ZM65.623 39.5281C75.6467 39.5281 82.6048 29.3087 82.6048 20.9486C82.6048 14.7117 77.4157 12.0571 72.4622 12.0571C61.4951 12.0571 55.4816 23.0718 55.4816 30.6366C55.4816 36.8736 60.7884 39.5281 65.623 39.5281ZM96.402 38.9967H104.774L111.613 1.44629H103.122L101.117 12.5935L97.5787 12.1959C89.3239 12.1959 81.777 24.1384 81.777 32.6322C81.777 36.0821 83.7771 39.5331 87.2016 39.5331C92.0362 39.5331 95.4564 36.8786 96.8686 34.224H97.3398L96.402 38.9967ZM70.2199 58.7704C63.6295 64.9151 55.1647 67.9156 46.6346 67.1305C35.4308 66.334 27.4116 56.646 25.9971 46.4278H26.4683C29.0628 52.8048 35.313 58.7704 42.9789 59.6982C50.7569 60.7598 60.0784 56.7798 65.1486 51.3381L59.4884 46.4278H76.5879L72.81 66.8654L70.3332 58.9029L70.2199 58.7704Z" fill="#FFC629"/>
</g>
<defs>
<clipPath id="clip0_120_99">
<rect width="111.56" height="66.3432" fill="white" transform="translate(0.0528564 0.909668)"/>
</clipPath>
</defs>
</svg>
